<?xml version="1.0" standalone="no"?>
<!DOCTYPE svg PUBLIC "-//W3C//DTD SVG 20010904//EN"
 "http://www.w3.org/TR/2001/REC-SVG-20010904/DTD/svg10.dtd">
<svg version="1.0" xmlns="http://www.w3.org/2000/svg"
 width="420.000000pt" height="420.000000pt" viewBox="0 0 420.000000 420.000000"
 preserveAspectRatio="xMidYMid meet">
<metadata>
Created by potrace 1.14, written by Peter Selinger 2001-2017
</metadata>
<g transform="translate(0.000000,420.000000) scale(0.100000,-0.100000)"
fill="#000000" stroke="none">
<path d="M1942 3450 c-13 -6 -49 -10 -80 -10 -127 2 -318 -69 -407 -150 -16
-15 -47 -33 -68 -40 -50 -16 -134 -73 -175 -118 -53 -60 -85 -137 -84 -207 0
-33 7 -79 16 -102 14 -39 13 -44 -4 -65 -19 -25 -46 -85 -57 -127 -11 -44 -12
-283 -2 -346 22 -139 31 -183 50 -244 10 -35 19 -69 19 -77 0 -18 -15 -18 -33
0 -31 31 -76 20 -95 -22 -22 -50 -21 -94 3 -254 6 -44 33 -160 41 -182 5 -14
-5 -16 -74 -16 -73 0 -81 -2 -107 -27 l-27 -28 6 -160 c3 -88 9 -200 12 -250
3 -49 7 -119 9 -155 1 -36 6 -140 10 -232 6 -123 5 -168 -4 -168 -6 0 -11 -6
-11 -14 0 -8 -7 -16 -15 -20 -8 -3 -15 -12 -15 -21 0 -8 -4 -15 -8 -15 -8 0
-82 -140 -86 -162 -1 -7 -4 -17 -8 -23 -7 -13 -36 -128 -43 -177 l-6 -38 1382
0 1382 0 -8 43 c-4 23 -8 49 -10 57 -3 24 -33 119 -42 133 -4 6 -9 20 -10 29
-2 10 -16 39 -33 66 -16 27 -30 54 -30 61 0 6 -4 11 -9 11 -12 0 -40 60 -36
80 2 10 6 82 10 161 4 79 9 169 10 199 2 30 6 127 10 215 4 88 9 168 10 177 4
17 7 132 6 181 -1 17 -12 38 -27 52 -24 22 -36 25 -101 25 l-73 0 6 28 c4 15
10 36 14 47 4 11 8 23 8 28 0 4 3 20 6 35 6 28 12 60 22 122 11 59 8 143 -5
183 -17 52 -39 61 -86 37 -21 -11 -41 -18 -43 -15 -3 2 1 24 7 47 6 24 13 51
16 61 2 9 6 21 9 26 3 4 8 26 11 47 5 39 11 77 21 124 3 14 8 84 11 155 6 152
-9 234 -58 302 -21 31 -31 56 -33 93 -3 36 -11 59 -26 75 -16 17 -22 38 -25
86 -3 77 -22 115 -78 163 -59 50 -58 50 -96 91 -19 20 -44 41 -55 46 -23 10
-58 31 -66 39 -5 6 -112 57 -145 70 -81 31 -149 48 -270 66 -71 10 -312 13
-333 4z"/>
</g>
</svg>
